<svg width="177" height="177" viewBox="0 0 177 177" fill="none" xmlns="http://www.w3.org/2000/svg">
<path d="M19.067 137.811L88.777 176.125L158.846 137.292L171.908 28.96L88.689 0.375L6 29.475L19.067 137.811Z" fill="#B3B3B3"/>
<path d="M88.4961 166.971L151.487 132.109L163.66 35.2209L88.4961 9.58887V166.971Z" fill="#A6120D"/>
<path d="M88.4948 166.971V9.58594L15.2788 35.6829L26.4758 132.572L88.4948 166.971Z" fill="#DD1B16"/>
<path d="M109.186 93.3707L88.4961 103.046H66.6891L56.4381 128.686L37.3711 129.039L88.4961 15.3037L109.186 93.3707ZM107.186 88.4997L88.6331 51.7707L73.4151 87.8677H88.4951L107.186 88.4997Z" fill="#F2F2F2"/>
<path d="M105.9 87.8957H88.5341L88.4951 103.023L112.508 103.046L123.731 129.043L141.975 129.381L88.4951 15.3037L88.6321 51.7707L105.9 87.8957Z" fill="#B3B3B3"/>
</svg>
